<svg xmlns="http://www.w3.org/2000/svg" id="svg2" viewBox="0 0 494.31 504.71" version="1.0"><defs id="defs4"><linearGradient id="linearGradient3441" y2="329.22" gradientUnits="userSpaceOnUse" x2="595.51" y1="509.84" x1="595.51"><stop id="stop3380" style="stop-color:#8f0" offset="0"/><stop id="stop3382" style="stop-color:#257400" offset="1"/></linearGradient><filter id="filter3398"><feGaussianBlur id="feGaussianBlur3400" stdDeviation="1.671"/></filter></defs><g id="layer1" transform="translate(-4.286 -1.79)"><g id="g3446"><path id="rect2568" style="fill-rule:evenodd;stroke:#008b00;stroke-width:18.094px;fill:#88f288" d="M119.51 12.551v176.7l-97.606-.42 113.37 152.17 113.37 152.17 115.71-151.11 115.77-151.18-102.13-.5V12.551l-258.48.001z"/><path id="path3364" d="M549.16 395.34c-.82 10.77-13.87 14.21-22.82 11.94-5.16-.43-11.3-.7-4.88 4.81 24.31 32.55 48.54 65.16 72.79 97.75 26.02-33.95 52.04-67.91 78.06-101.87-10.96-.05-21.91-.1-32.87-.13v-78.62h-90.28v66.12z" style="filter:url(#filter3398);fill-rule:evenodd;fill:url(#linearGradient3441)" transform="translate(-1095.4 -704.91) scale(2.2617)"/><path id="path3402" style="opacity:.55914;fill-rule:evenodd;fill:#fff5ee" d="M124.04 189.25c-4.29 10.05-26.771 1.79-38.454 4.39-18.235-.07-36.47-.15-54.706-.22 76.19 96.69 86.88 113.2 131.51 168.82 28.29-138.26 180.44-63.3 211.07-345.16-83.14-.005-166.28-.005-249.42-.005v172.18z"/></g></g></svg>